<svg width="152" height="100" viewBox="0 0 152 100" fill="none" xmlns="http://www.w3.org/2000/svg">
<path fill-rule="evenodd" clip-rule="evenodd" d="M10.1739 61.3466C5.65959 61.3466 2 57.687 2 53.1727V10.1739C2 5.65958 5.65959 2 10.1739 2H77.6087C82.123 2 85.7826 5.65958 85.7826 10.1739V53.1727C85.7826 57.687 82.123 61.3466 77.6087 61.3466H40.8557L35.0389 68.4541C32.1797 71.9476 27.0299 72.4619 23.5364 69.6028C23.1163 69.259 22.7315 68.8742 22.3877 68.4541L16.5709 61.3466H10.1739Z" stroke="#F5DA4A" stroke-width="4"/>
<path fill-rule="evenodd" clip-rule="evenodd" d="M73.5218 87.7558C69.0075 87.7558 65.3479 84.0962 65.3479 79.5819V36.7393C65.3479 32.225 69.0075 28.5654 73.5218 28.5654H140.957C145.471 28.5654 149.131 32.225 149.131 36.7393V79.5819C149.131 84.0962 145.471 87.7558 140.957 87.7558H134.56L128.736 94.8528C128.396 95.267 128.016 95.6468 127.602 95.9866C124.112 98.8503 118.962 98.3426 116.098 94.8528L110.275 87.7558H73.5218Z" fill="#383838" stroke="#F9E267" stroke-width="4"/>
</svg>
