<svg width="81" height="118" viewBox="0 0 81 118" fill="none" xmlns="http://www.w3.org/2000/svg">
<path d="M55.5007 37.0059H26.1514V60.8517H55.5007V37.0059Z" stroke="#F5DA4A" stroke-width="4"/>
<path d="M26.201 23.6523H56.3979C60.0854 23.6523 63.0747 26.6417 63.0747 30.3292V30.3292C63.0747 34.0167 60.0854 37.006 56.3979 37.006H26.201C22.5135 37.006 19.5242 34.0167 19.5242 30.3292V30.3292C19.5242 26.6417 22.5135 23.6523 26.201 23.6523Z" stroke="#F5DA4A" stroke-width="4"/>
<path fill-rule="evenodd" clip-rule="evenodd" d="M25.3591 60.8516H55.9158L78.2769 106.357C79.8865 109.633 78.5359 113.593 75.2602 115.203C74.3532 115.649 73.3561 115.88 72.3456 115.88H9.24139C5.5915 115.88 2.63269 112.922 2.63269 109.272C2.63269 108.274 2.8588 107.288 3.29406 106.39L25.3591 60.8516Z" stroke="#F5DA4A" stroke-width="4"/>
<path d="M36.6238 14.4194C40.234 14.4194 43.1606 11.6781 43.1606 8.29659C43.1606 4.91508 40.234 2.17383 36.6238 2.17383C33.0136 2.17383 30.0869 4.91508 30.0869 8.29659C30.0869 11.6781 33.0136 14.4194 36.6238 14.4194Z" stroke="#F5DA4A" stroke-width="4"/>
<path d="M48.2967 17.0437C50.1019 17.0437 51.5652 15.673 51.5652 13.9823C51.5652 12.2915 50.1019 10.9209 48.2967 10.9209C46.4916 10.9209 45.0283 12.2915 45.0283 13.9823C45.0283 15.673 46.4916 17.0437 48.2967 17.0437Z" stroke="#F5DA4A" stroke-width="4"/>
</svg>
