<svg width="114" height="93" viewBox="0 0 114 93" fill="none" xmlns="http://www.w3.org/2000/svg">
<rect x="2" y="18.4668" width="110" height="72" rx="6" stroke="#4A9DC2" stroke-width="4"/>
<path d="M38.2 2H74.5333C75.6379 2 76.5333 2.89543 76.5333 4V16.2667C76.5333 17.3712 75.6379 18.2667 74.5333 18.2667H38.1999C37.0954 18.2667 36.2 17.3712 36.2 16.2667V4C36.2 2.89543 37.0954 2 38.2 2Z" stroke="#4A9DC2" stroke-width="4"/>
<path d="M2 24.4668C2 21.1531 4.68629 18.4668 8 18.4668H106C109.314 18.4668 112 21.1531 112 24.4668V61.6668C112 64.9805 109.314 67.6668 106 67.6668H8C4.68629 67.6668 2 64.9805 2 61.6668V24.4668Z" stroke="#4A9DC2" stroke-width="4"/>
<rect x="33.6666" y="56.4668" width="11.2" height="21.3333" rx="2" stroke="#4A9DC2" stroke-width="4"/>
<rect x="65.3334" y="56.4668" width="11.2" height="21.3333" rx="2" stroke="#4A9DC2" stroke-width="4"/>
</svg>
