<svg width="132" height="87" viewBox="0 0 132 87" fill="none" xmlns="http://www.w3.org/2000/svg">
<path fill-rule="evenodd" clip-rule="evenodd" d="M9.75946 53.3978C5.87897 53.3978 2.73322 50.252 2.73322 46.3715V9.41004C2.73322 5.52955 5.87897 2.38379 9.75946 2.38379H67.726C71.6065 2.38379 74.7523 5.52955 74.7523 9.41004V46.3715C74.7523 50.252 71.6065 53.3978 67.726 53.3978H36.1334L31.1332 59.5074C28.6756 62.5104 24.2488 62.9524 21.2458 60.4948C20.8847 60.1992 20.5539 59.8685 20.2584 59.5074L15.2583 53.3978H9.75946Z" stroke="#4A9DC2" stroke-width="4"/>
<path fill-rule="evenodd" clip-rule="evenodd" d="M64.2129 76.099C60.3324 76.099 57.1867 72.9532 57.1867 69.0727V32.2455C57.1867 28.365 60.3324 25.2192 64.2129 25.2192H122.179C126.06 25.2192 129.206 28.365 129.206 32.2455V69.0727C129.206 72.9532 126.06 76.099 122.179 76.099H116.681L111.675 82.1995C111.383 82.5555 111.056 82.882 110.7 83.1741C107.7 85.6357 103.273 85.1993 100.811 82.1995L95.8056 76.099H64.2129Z" fill="white" stroke="#4A9DC2" stroke-width="4"/>
</svg>
