<svg width="71" height="103" viewBox="0 0 71 103" fill="none" xmlns="http://www.w3.org/2000/svg">
<path d="M47.9811 32.4229H22.7526V52.9206H47.9811V32.4229Z" stroke="#4A9DC2" stroke-width="4"/>
<path d="M22.7952 20.9443H48.7523C51.9221 20.9443 54.4917 23.5139 54.4917 26.6837V26.6837C54.4917 29.8535 51.9221 32.4231 48.7523 32.4231H22.7952C19.6255 32.4231 17.0559 29.8535 17.0559 26.6837V26.6837C17.0559 23.5139 19.6255 20.9443 22.7952 20.9443Z" stroke="#4A9DC2" stroke-width="4"/>
<path fill-rule="evenodd" clip-rule="evenodd" d="M22.0715 52.9204H48.338L67.5594 92.0368C68.943 94.8526 67.7821 98.2569 64.9662 99.6406C64.1866 100.024 63.3295 100.223 62.4609 100.223H8.21687C5.07945 100.223 2.53607 97.6795 2.53607 94.5421C2.53607 93.6841 2.73044 92.8372 3.10458 92.065L22.0715 52.9204Z" stroke="#4A9DC2" stroke-width="4"/>
<path d="M31.7546 13.0076C34.8579 13.0076 37.3737 10.6513 37.3737 7.74454C37.3737 4.83781 34.8579 2.48145 31.7546 2.48145C28.6513 2.48145 26.1356 4.83781 26.1356 7.74454C26.1356 10.6513 28.6513 13.0076 31.7546 13.0076Z" stroke="#4A9DC2" stroke-width="4"/>
<path d="M41.7886 15.2636C43.3403 15.2636 44.5981 14.0854 44.5981 12.632C44.5981 11.1787 43.3403 10.0005 41.7886 10.0005C40.237 10.0005 38.9791 11.1787 38.9791 12.632C38.9791 14.0854 40.237 15.2636 41.7886 15.2636Z" stroke="#4A9DC2" stroke-width="4"/>
</svg>
