<svg width="148" height="78" viewBox="0 0 148 78" fill="none" xmlns="http://www.w3.org/2000/svg">
<path d="M13.3768 20.866C13.3768 30.9848 21.6253 39.2333 31.7441 39.2333C41.8629 39.2333 50.1594 30.9848 50.1594 20.866C50.1594 10.7472 41.9109 2.45068 31.7441 2.45068C21.5774 2.45068 13.3768 10.6992 13.3768 20.866Z" fill="white" stroke="#F5DA4A" stroke-width="3"/>
<path fill-rule="evenodd" clip-rule="evenodd" d="M59.6956 76.0159C59.6956 56.9435 50.1594 47.4072 31.087 47.4072C12.0145 47.4072 2.47826 56.9435 2.47826 76.0159H59.6956Z" fill="white" stroke="#F5DA4A" stroke-width="3"/>
<path d="M99.8116 20.866C99.8116 30.9848 108.06 39.2333 118.179 39.2333C128.298 39.2333 136.594 30.9848 136.594 20.866C136.594 10.7472 128.346 2.45068 118.179 2.45068C108.012 2.45068 99.8116 10.6992 99.8116 20.866Z" fill="white" stroke="#F5DA4A" stroke-width="3"/>
<path fill-rule="evenodd" clip-rule="evenodd" d="M146.13 76.0159C146.13 56.9435 136.594 47.4072 117.522 47.4072C98.4493 47.4072 88.9131 56.9435 88.9131 76.0159H146.13Z" fill="white" stroke="#F5DA4A" stroke-width="3"/>
<path d="M56.5942 20.866C56.5942 30.9848 64.8427 39.2333 74.9615 39.2333C85.0803 39.2333 93.3768 30.9848 93.3768 20.866C93.3768 10.7472 85.1283 2.45068 74.9615 2.45068C64.7947 2.45068 56.5942 10.6992 56.5942 20.866Z" fill="white" stroke="#F5DA4A" stroke-width="3"/>
<path fill-rule="evenodd" clip-rule="evenodd" d="M102.913 76.0159C102.913 56.9435 93.3768 47.4072 74.3043 47.4072C55.2319 47.4072 45.6956 56.9435 45.6956 76.0159H102.913Z" fill="white" stroke="#F5DA4A" stroke-width="3"/>
</svg>
